<svg width="213" height="30" viewBox="0 0 213 30" fill="none" xmlns="http://www.w3.org/2000/svg">
<path d="M204.341 0H199.285V20.4347C199.285 22.8696 197.34 24.8696 194.92 24.8696C192.5 24.8696 190.556 22.8696 190.556 20.4347C190.556 18.0435 192.457 16.0869 194.791 16V10.8696C189.648 10.9565 185.5 15.1739 185.5 20.4347C185.5 25.7392 189.735 30 194.964 30C200.192 30 204.427 25.6957 204.427 20.4347V9.9565C206.328 11.3478 208.662 12.1739 211.125 12.2174V7.08696C207.322 6.95652 204.341 3.82608 204.341 0Z" fill="white"/>
<g clip-path="url(#clip0_854_294)">
<path d="M136 2.70117C140.008 2.70117 140.482 2.71875 142.059 2.78906C143.523 2.85352 144.314 3.09961 144.842 3.30469C145.539 3.57422 146.043 3.90234 146.564 4.42383C147.092 4.95117 147.414 5.44922 147.684 6.14648C147.889 6.67383 148.135 7.4707 148.199 8.92969C148.27 10.5117 148.287 10.9863 148.287 14.9883C148.287 18.9961 148.27 19.4707 148.199 21.0469C148.135 22.5117 147.889 23.3027 147.684 23.8301C147.414 24.5273 147.086 25.0313 146.564 25.5527C146.037 26.0801 145.539 26.4023 144.842 26.6719C144.314 26.877 143.518 27.123 142.059 27.1875C140.477 27.2578 140.002 27.2754 136 27.2754C131.992 27.2754 131.518 27.2578 129.941 27.1875C128.477 27.123 127.686 26.877 127.158 26.6719C126.461 26.4023 125.957 26.0742 125.436 25.5527C124.908 25.0254 124.586 24.5273 124.316 23.8301C124.111 23.3027 123.865 22.5059 123.801 21.0469C123.73 19.4648 123.713 18.9902 123.713 14.9883C123.713 10.9805 123.73 10.5059 123.801 8.92969C123.865 7.46484 124.111 6.67383 124.316 6.14648C124.586 5.44922 124.914 4.94531 125.436 4.42383C125.963 3.89648 126.461 3.57422 127.158 3.30469C127.686 3.09961 128.482 2.85352 129.941 2.78906C131.518 2.71875 131.992 2.70117 136 2.70117ZM136 0C131.928 0 131.418 0.0175781 129.818 0.0878906C128.225 0.158203 127.129 0.416016 126.18 0.785156C125.189 1.17187 124.352 1.68164 123.52 2.51953C122.682 3.35156 122.172 4.18945 121.785 5.17383C121.416 6.12891 121.158 7.21875 121.088 8.8125C121.018 10.418 121 10.9277 121 15C121 19.0723 121.018 19.582 121.088 21.1816C121.158 22.7754 121.416 23.8711 121.785 24.8203C122.172 25.8105 122.682 26.6484 123.52 27.4805C124.352 28.3125 125.189 28.8281 126.174 29.209C127.129 29.5781 128.219 29.8359 129.812 29.9062C131.412 29.9766 131.922 29.9941 135.994 29.9941C140.066 29.9941 140.576 29.9766 142.176 29.9062C143.77 29.8359 144.865 29.5781 145.814 29.209C146.799 28.8281 147.637 28.3125 148.469 27.4805C149.301 26.6484 149.816 25.8105 150.197 24.8262C150.566 23.8711 150.824 22.7813 150.895 21.1875C150.965 19.5879 150.982 19.0781 150.982 15.0059C150.982 10.9336 150.965 10.4238 150.895 8.82422C150.824 7.23047 150.566 6.13477 150.197 5.18555C149.828 4.18945 149.318 3.35156 148.48 2.51953C147.648 1.6875 146.811 1.17188 145.826 0.791016C144.871 0.421875 143.781 0.164062 142.188 0.09375C140.582 0.0175781 140.072 0 136 0Z" fill="white"/>
<path d="M136 7.29492C131.746 7.29492 128.295 10.7461 128.295 15C128.295 19.2539 131.746 22.7051 136 22.7051C140.254 22.7051 143.705 19.2539 143.705 15C143.705 10.7461 140.254 7.29492 136 7.29492ZM136 19.998C133.24 19.998 131.002 17.7598 131.002 15C131.002 12.2402 133.24 10.002 136 10.002C138.76 10.002 140.998 12.2402 140.998 15C140.998 17.7598 138.76 19.998 136 19.998Z" fill="white"/>
<path d="M145.809 6.99024C145.809 7.98633 145 8.78907 144.01 8.78907C143.014 8.78907 142.211 7.98047 142.211 6.99024C142.211 5.99414 143.02 5.19141 144.01 5.19141C145 5.19141 145.809 6 145.809 6.99024Z" fill="white"/>
</g>
<g clip-path="url(#clip1_854_294)">
<path d="M70.1231 27.1874C81.0638 27.1874 87.0496 17.8083 87.0496 9.67727C87.0496 9.41359 87.0439 9.14406 87.0326 8.88039C88.197 8.00927 89.2019 6.93026 90 5.69406C88.9155 6.19319 87.7642 6.51917 86.5851 6.66086C87.8265 5.89107 88.7561 4.68178 89.2014 3.25715C88.0335 3.97314 86.7563 4.4782 85.4246 4.7507C84.5273 3.76439 83.3409 3.11133 82.0488 2.8925C80.7567 2.67367 79.4309 2.90125 78.2764 3.54006C77.1219 4.17887 76.203 5.19332 75.6617 6.42658C75.1205 7.65984 74.987 9.04321 75.2819 10.3628C72.9172 10.2401 70.6038 9.60457 68.4916 8.49756C66.3795 7.39056 64.5159 5.83674 63.0215 3.93684C62.262 5.29149 62.0296 6.8945 62.3715 8.42005C62.7134 9.94561 63.604 11.2792 64.8623 12.1499C63.9177 12.1189 62.9937 11.8558 62.1668 11.3823V11.4585C62.166 12.8801 62.641 14.2582 63.5113 15.3584C64.3815 16.4586 65.5933 17.2131 66.9405 17.4937C66.0654 17.7414 65.147 17.7774 64.2563 17.5991C64.6364 18.8217 65.3761 19.8911 66.372 20.6579C67.3679 21.4247 68.5704 21.8507 69.8116 21.8765C67.7043 23.5888 65.1013 24.5176 62.4217 24.5132C61.9465 24.5125 61.4717 24.4823 61 24.423C63.7222 26.2296 66.8889 27.1892 70.1231 27.1874Z" fill="white"/>
</g>
<g clip-path="url(#clip2_854_294)">
<path d="M30 15C30 6.71572 23.2843 0 15 0C6.71572 0 0 6.71572 0 15C0 22.4868 5.48525 28.6925 12.6562 29.8178V19.3359H8.84766V15H12.6562V11.6953C12.6562 7.93594 14.8957 5.85938 18.322 5.85938C19.9626 5.85938 21.6797 6.15234 21.6797 6.15234V9.84375H19.7883C17.925 9.84375 17.3438 11.0001 17.3438 12.1875V15H21.5039L20.8389 19.3359H17.3438V29.8178C24.5147 28.6925 30 22.4868 30 15Z" fill="white"/>
</g>
<defs>
<clipPath id="clip0_854_294">
<rect width="30" height="30" fill="white" transform="translate(121)"/>
</clipPath>
<clipPath id="clip1_854_294">
<rect width="29" height="30" fill="white" transform="translate(61)"/>
</clipPath>
<clipPath id="clip2_854_294">
<rect width="30" height="30" fill="white"/>
</clipPath>
</defs>
</svg>
