<svg width="1440" height="3612" viewBox="0 0 1440 3612" fill="none" xmlns="http://www.w3.org/2000/svg">
<path fill-rule="evenodd" clip-rule="evenodd" d="M-160 267.5L-116.838 231.833C-75.165 196.167 9.67 124.833 94.505 80.25C180.828 35.6667 265.663 17.8333 350.498 53.5C435.333 89.1667 520.168 178.333 605.003 178.333C689.838 178.333 776.162 89.1667 860.997 53.5C945.832 17.8333 1030.67 35.6667 1115.5 62.4167C1200.34 89.1667 1285.17 124.833 1371.49 115.917C1456.33 107 1541.17 53.5 1582.84 26.75L1626 0V321H1582.84C1541.17 321 1456.33 321 1371.49 321C1285.17 321 1200.34 321 1115.5 321C1030.67 321 945.832 321 860.997 321C776.162 321 689.838 321 605.003 321C520.168 321 435.333 321 350.498 321C265.663 321 180.828 321 94.505 321C9.67 321 -75.165 321 -116.838 321H-160V267.5Z" fill="url(#paint0_linear_548_262)" fill-opacity="0.3"/>
<path fill-rule="evenodd" clip-rule="evenodd" d="M-129.686 244.258L-47.4375 220.359C33.56 196.593 198.058 148.795 367.667 161.21C537.276 173.624 714.498 245.984 884.903 265.908C1055.31 285.832 1221.4 253.054 1303.19 236.798L1386.23 220.409L1400.55 355.587L1316.71 364.466C1234.12 373.212 1066.44 390.97 900.014 408.596C733.586 426.221 565.907 443.979 399.48 461.605C233.052 479.23 65.3732 496.988 -17.2149 505.734L-101.054 514.613L-129.686 244.258Z" fill="url(#paint1_linear_548_262)"/>
<path fill-rule="evenodd" clip-rule="evenodd" d="M1517 224.133L1432.69 209.029C1349.64 193.925 1181.02 163.718 1013.67 193.925C846.308 224.133 677.692 314.755 510.333 352.514C342.975 390.274 174.358 375.17 91.3083 367.618L7 360.066V496H91.3083C174.358 496 342.975 496 510.333 496C677.692 496 846.308 496 1013.67 496C1181.02 496 1349.64 496 1432.69 496H1517V224.133Z" fill="url(#paint2_linear_548_262)"/>
<path fill-rule="evenodd" clip-rule="evenodd" d="M-84 269.133L0.308334 254.029C83.3583 238.925 251.975 208.718 419.333 238.925C586.692 269.133 755.308 359.755 922.667 397.514C1090.03 435.274 1258.64 420.17 1341.69 412.618L1426 405.066V541H1341.69C1258.64 541 1090.03 541 922.667 541C755.308 541 586.692 541 419.333 541C251.975 541 83.3583 541 0.308334 541H-84V269.133Z" fill="url(#paint3_linear_548_262)"/>
<rect y="492" width="1440" height="3120" fill="#FFF0DE"/>
<path fill-rule="evenodd" clip-rule="evenodd" d="M-83.8787 476.499L-44.6722 444.264C-6.81477 412.025 70.2492 347.551 147.252 307.327C225.605 267.106 302.548 251.131 379.369 283.657C456.19 316.182 532.891 397.208 609.793 397.4C686.695 397.592 765.149 316.955 842.132 284.814C919.115 252.673 995.977 269.032 1072.82 293.474C1149.66 317.916 1226.48 350.442 1304.75 342.554C1381.68 334.663 1458.7 286.355 1496.54 262.2L1535.72 238.048L1534.99 529.047L1495.87 528.949C1458.09 528.855 1381.19 528.662 1304.29 528.47C1226.04 528.275 1149.13 528.082 1072.23 527.89C995.33 527.698 918.428 527.505 841.525 527.313C764.623 527.121 686.372 526.925 609.469 526.733C532.567 526.541 455.665 526.348 378.763 526.156C301.86 525.964 224.958 525.772 146.707 525.576C69.8045 525.384 -7.09772 525.191 -44.8743 525.097L-84 524.999L-83.8787 476.499Z" fill="url(#paint4_linear_548_262)"/>
<defs>
<linearGradient id="paint0_linear_548_262" x1="548.774" y1="-163.809" x2="733.533" y2="1178.11" gradientUnits="userSpaceOnUse">
<stop stop-color="#E38B29"/>
<stop offset="0.791336" stop-color="#E38B29" stop-opacity="0"/>
</linearGradient>
<linearGradient id="paint1_linear_548_262" x1="655.631" y1="139.336" x2="579.853" y2="862.337" gradientUnits="userSpaceOnUse">
<stop stop-color="#F1A661"/>
<stop offset="1" stop-color="#FFF8F0"/>
</linearGradient>
<linearGradient id="paint2_linear_548_262" x1="1355" y1="41" x2="1086.5" y2="1091" gradientUnits="userSpaceOnUse">
<stop stop-color="#F3AF70"/>
<stop offset="0.441643" stop-color="#FFD8A9"/>
</linearGradient>
<linearGradient id="paint3_linear_548_262" x1="445.5" y1="367.5" x2="204.5" y2="1213.5" gradientUnits="userSpaceOnUse">
<stop stop-color="#F1A661"/>
<stop offset="0.967937" stop-color="#FFD8A9" stop-opacity="0.5"/>
</linearGradient>
<linearGradient id="paint4_linear_548_262" x1="559.597" y1="87.1069" x2="724.055" y2="1304.02" gradientUnits="userSpaceOnUse">
<stop stop-color="#FFF0DE"/>
<stop offset="1" stop-color="#FFF0DE"/>
</linearGradient>
</defs>
</svg>
