<svg width="1440" height="445" viewBox="0 0 1440 445" fill="none" xmlns="http://www.w3.org/2000/svg">
<path fill-rule="evenodd" clip-rule="evenodd" d="M1491 13.8009L1450.1 8.46096C1409.2 3.12099 1327.4 -7.55895 1245.6 8.46096C1163.8 24.4809 1082 67.2006 1000.2 77.8806C918.4 88.5605 836.6 67.2006 754.8 67.2006C673 67.2006 591.2 88.5605 509.4 83.2205C427.6 77.8806 345.8 45.8407 304.9 29.8208L264 13.8009V174H304.9C345.8 174 427.6 174 509.4 174C591.2 174 673 174 754.8 174C836.6 174 918.4 174 1000.2 174C1082 174 1163.8 174 1245.6 174C1327.4 174 1409.2 174 1450.1 174H1491V13.8009Z" fill="#E38B29"/>
<path fill-rule="evenodd" clip-rule="evenodd" d="M160 14.9113L202.667 9.14173C245.333 3.37211 330.667 -8.16714 416 9.14173C501.333 26.4506 586.667 72.6076 672 84.1468C757.333 95.6861 842.667 72.6076 928 72.6076C1013.33 72.6076 1098.67 95.6861 1184 89.9164C1269.33 84.1468 1354.67 49.5291 1397.33 32.2202L1440 14.9113V188H1397.33C1354.67 188 1269.33 188 1184 188C1098.67 188 1013.33 188 928 188C842.667 188 757.333 188 672 188C586.667 188 501.333 188 416 188C330.667 188 245.333 188 202.667 188H160V14.9113Z" fill="#F8CD9B"/>
<path fill-rule="evenodd" clip-rule="evenodd" d="M-80 17.4494L-28.3 10.6978C23.4 3.94608 126.8 -9.55729 230.2 10.6978C333.6 30.9528 437 84.9663 540.4 98.4697C643.8 111.973 747.2 84.9663 850.6 84.9663C954 84.9663 1057.4 111.973 1160.8 105.221C1264.2 98.4697 1367.6 57.9596 1419.3 37.7045L1471 17.4494V220H1419.3C1367.6 220 1264.2 220 1160.8 220C1057.4 220 954 220 850.6 220C747.2 220 643.8 220 540.4 220C437 220 333.6 220 230.2 220C126.8 220 23.4 220 -28.3 220H-80V17.4494Z" fill="#F1A661"/>
<rect y="154" width="1440" height="291" fill="#F1A661"/>
<line x1="125" y1="367.75" x2="1265.04" y2="367.75" stroke="white" stroke-width="0.5"/>
</svg>
