<svg width="28" height="28" viewBox="0 0 28 28" fill="none" xmlns="http://www.w3.org/2000/svg">
<g clip-path="url(#clip0_691_333)">
<path d="M1.02688 16.4387L5.54188 21.0004C5.65034 21.1097 5.77937 21.1965 5.92154 21.2557C6.06371 21.315 6.2162 21.3455 6.37022 21.3455C6.52423 21.3455 6.67672 21.315 6.81889 21.2557C6.96106 21.1965 7.09009 21.1097 7.19855 21.0004C7.3079 20.8919 7.39469 20.7629 7.45392 20.6207C7.51315 20.4785 7.54365 20.3261 7.54365 20.172C7.54365 20.018 7.51315 19.8655 7.45392 19.7234C7.39469 19.5812 7.3079 19.4522 7.19855 19.3437L3.04522 15.167H26.8335C27.143 15.167 27.4397 15.0441 27.6585 14.8253C27.8773 14.6065 28.0002 14.3098 28.0002 14.0004C28.0002 13.691 27.8773 13.3942 27.6585 13.1754C27.4397 12.9566 27.143 12.8337 26.8335 12.8337H2.97522L7.19855 8.61037C7.40539 8.3934 7.52077 8.10514 7.52077 7.80537C7.52077 7.50561 7.40539 7.21734 7.19855 7.00037C7.09009 6.89102 6.96106 6.80423 6.81889 6.745C6.67672 6.68577 6.52423 6.65527 6.37022 6.65527C6.2162 6.65527 6.06371 6.68577 5.92154 6.745C5.77937 6.80423 5.65034 6.89102 5.54188 7.00037L1.02688 11.492C0.371447 12.1483 0.0032959 13.0379 0.0032959 13.9654C0.0032959 14.8929 0.371447 15.7825 1.02688 16.4387Z" fill="#E38B29"/>
</g>
<defs>
<clipPath id="clip0_691_333">
<rect width="28" height="28" fill="white"/>
</clipPath>
</defs>
</svg>
